{"title":"Glory 27 Chicago 720p WEB-DL x264","uid":13687423,"size":3372641398,"categoryP":"video","categoryS":"hd___tv_shows","magnet":"?xt=urn:btih:a1fcb3e97ef60a96107d2ee882ffcec5c7fa057e&amp;dn=Glory+27+Chicago+720p+WEB-DL+x264&amp;tr=udp%3A%2F%2Ftracker.leechers-paradise.org%3A6969&amp;tr=udp%3A%2F%2Fzer0day.ch%3A1337&amp;tr=udp%3A%2F%2Fopen.demonii.com%3A1337&amp;tr=udp%3A%2F%2Ftracker.coppersurfer.tk%3A6969&amp;tr=udp%3A%2F%2Fexodus.desync.com%3A6969","seeders":1,"leechers":0,"uploader":"CenaCme","files":2,"time":1456571313,"description":"Wayne Barrett vs Robert Thomas (Semifinal #1)\r\nDustin Jacoby vs Karl Roberson (Semifinal #2)\r\nGiga Chikadze vs Kevin Vannostrand\r\nWinner Semifinal #1 vs Winner Semifinal #2\r\nArtem Levin vs Simon Marcus\r\n\r\nGeneral\r\nComplete name                            : Glory.27.Chicago.720p.WEB-DL.x264.mp4\r\nFormat                                   : MPEG-4\r\nFormat profile                           : Base Media\r\nCodec ID                                 : isom\r\nFile size                                : 3.14 GiB\r\nDuration                                 : 2h 14mn\r\nOverall bit rate mode                    : Constant\r\nOverall bit rate                         : 3 355 Kbps\r\nWriting application                      : Lavf57.25.100\r\n\r\nVideo\r\nID                                       : 1\r\nFormat                                   : AVC\r\nFormat/Info                              : Advanced Video Codec\r\nFormat profile                           :   \r\nFormat settings, CABAC                   : Yes\r\nFormat settings, ReFrames                : 2 frames\r\nFormat settings, GOP                     : M=3, N=60\r\nCodec ID                                 : avc1\r\nCodec ID/Info                            : Advanced Video Coding\r\nDuration                                 : 2h 13mn\r\nBit rate mode                            : Constant\r\nBit rate                                 : 3 221 Kbps\r\nNominal bit rate                         : 2 400 Kbps\r\nWidth                                    : 1 280 pixels\r\nHeight                                   : 720 pixels\r\nDisplay aspect ratio                     : 16:9\r\nFrame rate mode                          : Variable\r\nFrame rate                               : 29.970 fps\r\nMinimum frame rate                       : 29.412 fps\r\nMaximum frame rate                       : 30.303 fps\r\nStandard                                 : Component\r\nColor space                              : YUV\r\nChroma subsampling                       : 4:2:0\r\nBit depth                                : 8 bits\r\nScan type                                : Progressive\r\nBits/(Pixel*Frame)                       : 0.117\r\nStream size                              : 3.01 GiB (96%)\r\n\r\nAudio\r\nID                                       : 2\r\nFormat                                   : AAC\r\nFormat/Info                              : Advanced Audio Codec\r\nFormat profile                           : LC\r\nCodec ID                                 : 40\r\nDuration                                 : 2h 14mn\r\nBit rate mode                            : Constant\r\nBit rate                                 : 125 Kbps\r\nChannel(s)                               : 2 channels\r\nChannel positions                        : Front: L R\r\nSampling rate                            : 48.0 KHz\r\nCompression mode                         : Lossy\r\nStream size                              : 120 MiB (4%)\r\n\r\nText\r\nID                                       : 1-CC1\r\nFormat                                   : EIA-608\r\nMuxing mode                              : SCTE 128 / DTVCC Transport\r\nMuxing mode, more info                   : Muxed in Video #1\r\nDuration                                 : 2h 13mn\r\nBit rate mode                            : Constant\r\nStream size                              : 0.00 Byte (0%)\r\nEncoded stream size                      : 0.00 Byte (0%)\r\n\r\n\r\nThumb sheet:\r\n \nhttp://extraimago.com/image/a2s5","torrent":{"xt":"urn:btih:a1fcb3e97ef60a96107d2ee882ffcec5c7fa057e","amp;dn":"Glory+27+Chicago+720p+WEB-DL+x264","amp;tr":["udp%3A%2F%2Ftracker.leechers-paradise.org%3A6969","udp%3A%2F%2Fzer0day.ch%3A1337","udp%3A%2F%2Fopen.demonii.com%3A1337","udp%3A%2F%2Ftracker.coppersurfer.tk%3A6969","udp%3A%2F%2Fexodus.desync.com%3A6969"],"infoHash":"a1fcb3e97ef60a96107d2ee882ffcec5c7fa057e","infoHashBuffer":{"type":"Buffer","data":[161,252,179,233,126,246,10,150,16,125,46,232,130,255,206,197,199,250,5,126]},"announce":[],"urlList":[]}}